<svg width="527" height="325" viewBox="0 0 527 325" fill="none" xmlns="http://www.w3.org/2000/svg">
<path d="M167.389 189.712C163.121 163.48 171.544 136.575 181.437 118.742C196.258 102.792 211.172 92.4773 225.64 86.3651M167.389 189.712H181.437C185.03 191.654 194.159 191.724 201.921 176.471L235.882 124.567C239.296 120.507 244.076 110.267 235.882 101.793L225.64 86.3651M167.389 189.712C171.733 206.66 177.715 227.147 197.609 241.615M225.64 86.3651C253.332 74.6661 279.388 78.3653 300.03 87.4283M300.03 87.4283C314.731 93.8822 326.685 103.056 334.531 111.327C351.617 143.022 356.494 168.862 353.644 189.712M300.03 87.4283L288.171 106.56C284.757 110.267 280.624 119.695 291.405 127.745C302.187 135.796 321.054 167.114 329.14 181.767C331.116 184.415 337.549 189.712 347.468 189.712C357.387 189.712 355.718 189.712 353.644 189.712M353.644 189.712C350.65 211.605 339.135 227.996 324.288 239.886M197.609 241.615C203.538 252.689 235.882 263.859 265.53 265.978C285.476 265.978 306.499 258.034 324.288 239.886M197.609 241.615C201.562 236.479 211.409 225.832 210.546 226.256C209.468 226.786 215.937 217.252 228.874 220.43H303.804C308.835 220.077 318.682 220.748 317.82 226.256L324.288 239.886M50.9834 22.3493L102.194 61.5417C94.1084 74.959 76.9662 106.348 73.085 124.567C68.2334 147.341 65.5381 158.464 69.3115 194.478C72.3303 223.29 79.5537 238.967 82.7881 243.204C88.1787 258.916 107.477 296.273 141.546 320H50.9834C32.1162 295.108 -3.6776 227.739 4.08491 157.404C2.6474 132.512 10.0146 70.6513 50.9834 22.3493ZM63.3818 4.87158C63.8131 4.87158 135.077 65.2491 170.655 95.4379C195.812 67.7207 265.638 26.7982 343.695 84.8454L446.656 4.87158C398.14 3.45924 300.893 1.48197 300.03 4.87158C298.952 9.1086 261.757 47.2418 262.296 47.2418C262.727 47.2418 228.694 18.995 211.624 4.87158H63.3818ZM468.757 12.2864C510.445 64.3664 568.807 198.821 468.757 320H379.273C428.687 285.221 504.767 183.038 413.773 52.5381L468.757 12.2864ZM353.398 95.4379C353.937 95.4379 429.406 191.83 324.288 270.745L367.952 315.233C414.132 280.101 484.174 178.393 403.531 59.7569L353.398 95.4379ZM262.296 147.871C254.21 159.17 238.362 181.767 239.655 181.767C237.499 184.945 235.451 190.771 244.507 188.652H288.71C290.866 188.829 293.885 187.911 288.71 182.826C282.062 172.587 268.118 151.684 265.53 149.99C264.957 148.577 263.506 146.176 262.296 147.871ZM115.132 71.075C82.0693 112.739 44.6224 220.854 159.335 320L199.765 270.745C167.78 254.15 114.916 199.033 159.335 111.327L115.132 71.075Z" stroke="black" stroke-width="6"/>
</svg>
