<svg  width='100%' viewBox="0 0 516 200"  fill="none" xmlns="http://www.w3.org/2000/svg">
<g filter="url(#filter0_d_2_9)">
<path d="M201.5 64L153.5 83L216.5 64L234.5 61L247 55.5L292.5 37.5L333.5 25.5L423.5 1L316.5 25.5L266 41L201.5 64Z" fill="white"/>
<path d="M222.5 89L273 91L192.5 94.5L151.5 98L113.5 100.5L118.5 108H121.5L168.5 116.5L176 125L124.5 116.5V127L116.5 176.5L124.5 195L130.5 203L155.5 218L159.5 238L168.5 256L140 247.5L121.5 238L113.5 228.5L104 200.5L115 195L107.5 173L116.5 115L104 98L116.5 93L179.5 89H222.5Z" fill="white"/>
<path d="M339.5 69L415 79L391.5 73.5L374 71L353 66.5L343.5 61L339.5 57L346 51L369.5 39L407.5 27.5L456.5 17.5L517 11.5L580 13L611 17.5L652.5 30L707 53.5L740 70.5L769.5 89.5L810.5 87.5L847.5 89.5L879.5 93L915.5 101L947.5 109.5L977 121.5L1017 142L971.5 116L932 100L886 87.5L832 80.5L783 78.5L769.5 70.5L719 46L647 14.5L598.5 5L537 1L498 5L437.5 11.5L369.5 27.5L336 37.5L306 47.5L301 51V55.5L310.5 61L339.5 69Z" fill="white"/>
<path d="M672.5 89.5L680.5 73.5L723 79L712.5 71L740 83L746.5 91.5L675 93.5L672.5 89.5Z" fill="white"/>
<path d="M962 143.5L932 128.5L982.5 136.5L1029.5 156L1031 192.5L1024 156L977 154L962 143.5Z" fill="white"/>
<path d="M964 256L967.5 205.5L985.5 220.5L1003 232L1029.5 236.5L1018 248L998 252.5L964 256Z" fill="white"/>
<path d="M1026.5 223.5L1020 210V211.5H1018L1024 223.5H1026.5Z" fill="white"/>
<path d="M553.5 96L485 89.5L609 96L672.5 100H631.5L553.5 96Z" fill="white"/>
<path d="M201.5 64L153.5 83L216.5 64L234.5 61L247 55.5L292.5 37.5L333.5 25.5L423.5 1L316.5 25.5L266 41L201.5 64Z" stroke="white" stroke-linejoin="round"/>
<path d="M222.5 89L273 91L192.5 94.5L151.5 98L113.5 100.5L118.5 108H121.5L168.5 116.5L176 125L124.5 116.5V127L116.5 176.5L124.5 195L130.5 203L155.5 218L159.5 238L168.5 256L140 247.5L121.5 238L113.5 228.5L104 200.5L115 195L107.5 173L116.5 115L104 98L116.5 93L179.5 89H222.5Z" stroke="white" stroke-linejoin="round"/>
<path d="M339.5 69L415 79L391.5 73.5L374 71L353 66.5L343.5 61L339.5 57L346 51L369.5 39L407.5 27.5L456.5 17.5L517 11.5L580 13L611 17.5L652.5 30L707 53.5L740 70.5L769.5 89.5L810.5 87.5L847.5 89.5L879.5 93L915.5 101L947.5 109.5L977 121.5L1017 142L971.5 116L932 100L886 87.5L832 80.5L783 78.5L769.5 70.5L719 46L647 14.5L598.5 5L537 1L498 5L437.5 11.5L369.5 27.5L336 37.5L306 47.5L301 51V55.5L310.5 61L339.5 69Z" stroke="white" stroke-linejoin="round"/>
<path d="M672.5 89.5L680.5 73.5L723 79L712.5 71L740 83L746.5 91.5L675 93.5L672.5 89.5Z" stroke="white" stroke-linejoin="round"/>
<path d="M962 143.5L932 128.5L982.5 136.5L1029.5 156L1031 192.5L1024 156L977 154L962 143.5Z" stroke="white" stroke-linejoin="round"/>
<path d="M964 256L967.5 205.5L985.5 220.5L1003 232L1029.5 236.5L1018 248L998 252.5L964 256Z" stroke="white" stroke-linejoin="round"/>
<path d="M1026.5 223.5L1020 210V211.5H1018L1024 223.5H1026.5Z" stroke="white" stroke-linejoin="round"/>
<path d="M553.5 96L485 89.5L609 96L672.5 100H631.5L553.5 96Z" stroke="white" stroke-linejoin="round"/>
</g>
<g filter="url(#filter1_d_2_9)">
<path d="M279.055 164.195C279.055 158.727 280.406 154.445 283.109 151.352C285.828 148.242 289.727 146.688 294.805 146.688C297.773 146.688 300.227 147.195 302.164 148.211C304.102 149.211 305.492 150.586 306.336 152.336C306.773 153.242 306.703 153.867 306.125 154.211L304.273 155.289C303.648 155.648 303.094 155.352 302.609 154.398C302.094 153.414 301.25 152.492 300.078 151.633C298.906 150.773 297.227 150.344 295.039 150.344C291.133 150.344 288.289 151.562 286.508 154C284.742 156.422 283.859 159.82 283.859 164.195C283.859 168.57 284.742 171.977 286.508 174.414C288.289 176.836 291.133 178.047 295.039 178.047C297.289 178.047 299.086 177.531 300.43 176.5C301.789 175.469 302.773 174.391 303.383 173.266C303.867 172.359 304.43 172.086 305.07 172.445L307.016 173.547C307.578 173.875 307.625 174.5 307.156 175.422C306.234 177.219 304.734 178.719 302.656 179.922C300.578 181.109 297.961 181.703 294.805 181.703C289.727 181.703 285.828 180.156 283.109 177.062C280.406 173.953 279.055 169.664 279.055 164.195ZM313.836 154.023C313.633 153.523 313.82 153.164 314.398 152.945C315.602 152.492 316.742 151.766 317.82 150.766C318.898 149.766 319.75 148.875 320.375 148.094C320.828 147.531 321.266 147.25 321.688 147.25H323.68C324.398 147.25 324.758 147.602 324.758 148.305V179.945C324.758 180.648 324.406 181 323.703 181H321.688C320.984 181 320.633 180.648 320.633 179.945V154.258C320.633 153.789 320.648 153.32 320.68 152.852H320.633C320.148 153.461 319.438 154.086 318.5 154.727C317.562 155.367 316.703 155.836 315.922 156.133C315.234 156.398 314.781 156.273 314.562 155.758L313.836 154.023ZM331.273 158.453C331.273 155.047 332.172 152.281 333.969 150.156C335.781 148.031 338.453 146.969 341.984 146.969C345.672 146.969 348.43 148.438 350.258 151.375C352.102 154.297 353.023 158.305 353.023 163.398C353.023 170.273 351.828 175.047 349.438 177.719C347.047 180.375 344.141 181.703 340.719 181.703C338.766 181.703 337.203 181.453 336.031 180.953C334.859 180.453 333.852 179.812 333.008 179.031C332.352 178.422 332.203 177.914 332.562 177.508L333.664 176.219C334.102 175.719 334.672 175.766 335.375 176.359C335.953 176.859 336.648 177.289 337.461 177.648C338.273 178.008 339.43 178.188 340.93 178.188C343.039 178.188 344.875 177.133 346.438 175.023C348 172.914 348.781 169.602 348.781 165.086H348.734C348.031 166.102 347.016 166.969 345.688 167.688C344.375 168.391 342.711 168.742 340.695 168.742C338.195 168.742 336 167.891 334.109 166.188C332.219 164.469 331.273 161.891 331.273 158.453ZM335.867 158.312C335.867 160.578 336.398 162.289 337.461 163.445C338.523 164.586 339.852 165.156 341.445 165.156C343.508 165.156 345.109 164.523 346.25 163.258C347.406 161.992 347.984 160.289 347.984 158.148C347.984 156.211 347.445 154.453 346.367 152.875C345.305 151.281 343.828 150.484 341.938 150.484C339.984 150.484 338.484 151.219 337.438 152.688C336.391 154.156 335.867 156.031 335.867 158.312ZM358.297 151.516C357.594 151.516 357.242 151.164 357.242 150.461V148.727C357.242 148.023 357.594 147.672 358.297 147.672H377.844C378.547 147.672 378.898 148.023 378.898 148.727V150.344C378.898 150.844 378.617 151.406 378.055 152.031C374.93 155.578 372.422 159.508 370.531 163.82C368.641 168.117 367.695 172.805 367.695 177.883V180.086C367.695 180.789 367.344 181.141 366.641 181.141H364.508C363.805 181.141 363.453 180.789 363.453 180.086V178.703C363.453 173.062 364.523 168.102 366.664 163.82C368.805 159.523 371.469 155.422 374.656 151.516V151.469C374.188 151.5 373.719 151.516 373.25 151.516H358.297ZM384.078 177.531C383.453 176.812 383.328 176.227 383.703 175.773L384.922 174.297C385.453 173.656 386.086 173.797 386.82 174.719C387.633 175.734 388.633 176.57 389.82 177.227C391.023 177.867 392.281 178.188 393.594 178.188C396.172 178.188 398 177.547 399.078 176.266C400.156 174.984 400.695 173.273 400.695 171.133C400.695 168.867 399.977 167.227 398.539 166.211C397.102 165.195 395.492 164.688 393.711 164.688H391.648C390.945 164.688 390.594 164.43 390.594 163.914V162.18C390.594 161.633 390.945 161.359 391.648 161.359H393.312C395.031 161.359 396.5 160.797 397.719 159.672C398.953 158.547 399.57 157.016 399.57 155.078C399.57 153.734 399.078 152.633 398.094 151.773C397.109 150.914 395.727 150.484 393.945 150.484C392.273 150.484 390.906 150.867 389.844 151.633C388.781 152.398 388.031 153.062 387.594 153.625C387.016 154.375 386.453 154.492 385.906 153.977L384.523 152.641C384.117 152.25 384.297 151.602 385.062 150.695C385.875 149.742 387.039 148.883 388.555 148.117C390.086 147.352 391.906 146.969 394.016 146.969C397.25 146.969 399.719 147.75 401.422 149.312C403.125 150.875 403.977 152.898 403.977 155.383C403.977 157.352 403.367 159 402.148 160.328C400.945 161.641 399.625 162.453 398.188 162.766V162.859C399.859 163.094 401.461 164 402.992 165.578C404.523 167.156 405.289 169.039 405.289 171.227C405.289 174.477 404.344 177.039 402.453 178.914C400.578 180.773 397.594 181.703 393.5 181.703C391.125 181.703 389.164 181.242 387.617 180.32C386.07 179.383 384.891 178.453 384.078 177.531ZM428.117 181C427.336 181 426.945 180.57 426.945 179.711V148.68C426.945 147.82 427.336 147.391 428.117 147.391H437.961C443.273 147.391 446.859 148.289 448.719 150.086C450.578 151.867 451.508 154.32 451.508 157.445C451.508 160.57 450.578 163.031 448.719 164.828C446.859 166.609 443.273 167.5 437.961 167.5H431.445V179.711C431.445 180.57 431.055 181 430.273 181H428.117ZM431.445 163.656H438.031C441.469 163.656 443.812 163.172 445.062 162.203C446.312 161.219 446.938 159.633 446.938 157.445C446.938 155.258 446.312 153.68 445.062 152.711C443.812 151.727 441.469 151.234 438.031 151.234H431.445V163.656ZM455.773 164.195C455.773 158.727 457.117 154.445 459.805 151.352C462.508 148.242 466.398 146.688 471.477 146.688C476.555 146.688 480.438 148.242 483.125 151.352C485.828 154.445 487.18 158.727 487.18 164.195C487.18 169.664 485.828 173.953 483.125 177.062C480.438 180.156 476.555 181.703 471.477 181.703C466.398 181.703 462.508 180.156 459.805 177.062C457.117 173.953 455.773 169.664 455.773 164.195ZM460.578 164.195C460.578 168.57 461.477 171.977 463.273 174.414C465.07 176.836 467.805 178.047 471.477 178.047C475.148 178.047 477.883 176.836 479.68 174.414C481.477 171.977 482.375 168.57 482.375 164.195C482.375 159.82 481.477 156.422 479.68 154C477.883 151.562 475.148 150.344 471.477 150.344C467.805 150.344 465.07 151.562 463.273 154C461.477 156.422 460.578 159.82 460.578 164.195ZM490.836 148.797C490.586 147.859 490.789 147.391 491.445 147.391H494.305C494.805 147.391 495.141 147.75 495.312 148.469L500.539 170.992C500.758 171.898 501 172.883 501.266 173.945C501.547 175.008 501.789 176.008 501.992 176.945H502.109C502.266 176.023 502.445 175.109 502.648 174.203C502.867 173.297 503.109 172.234 503.375 171.016L508.719 148.656C508.922 147.812 509.422 147.391 510.219 147.391H513.453C514.25 147.391 514.75 147.812 514.953 148.656L520.297 171.016C520.562 172.234 520.797 173.297 521 174.203C521.219 175.109 521.406 176.023 521.562 176.945H521.68C521.883 176.008 522.117 175.008 522.383 173.945C522.664 172.883 522.914 171.898 523.133 170.992L528.359 148.469C528.531 147.75 528.867 147.391 529.367 147.391H532.227C532.883 147.391 533.086 147.859 532.836 148.797L524.773 179.195C524.461 180.398 523.883 181 523.039 181H520.109C519.328 181 518.773 180.344 518.445 179.031L512.797 156.555C512.516 155.414 512.312 154.484 512.188 153.766C512.062 153.031 511.953 152.273 511.859 151.492H511.812C511.719 152.273 511.609 153.031 511.484 153.766C511.359 154.484 511.156 155.414 510.875 156.555L505.227 179.031C504.898 180.344 504.344 181 503.562 181H500.633C499.789 181 499.211 180.398 498.898 179.195L490.836 148.797ZM538.742 181C537.961 181 537.57 180.57 537.57 179.711V148.68C537.57 147.82 537.961 147.391 538.742 147.391H559.25C560.109 147.391 560.539 147.742 560.539 148.445V150.18C560.539 150.883 560.109 151.234 559.25 151.234H542.07V161.641H557.844C558.703 161.641 559.133 161.992 559.133 162.695V164.43C559.133 165.133 558.703 165.484 557.844 165.484H542.07V177.156H559.953C560.812 177.156 561.242 177.508 561.242 178.211V179.945C561.242 180.648 560.812 181 559.953 181H538.742ZM568.508 181C567.727 181 567.336 180.57 567.336 179.711V148.68C567.336 147.82 567.727 147.391 568.508 147.391H579.828C584.344 147.391 587.609 148.234 589.625 149.922C591.656 151.609 592.672 153.836 592.672 156.602C592.672 159.039 591.852 161.086 590.211 162.742C588.586 164.398 586.266 165.352 583.25 165.602V165.648C584.844 166.836 585.898 167.742 586.414 168.367C586.93 168.977 587.508 169.805 588.148 170.852L593.445 179.453C594.086 180.484 593.945 181 593.023 181H590.352C589.617 181 589.07 180.695 588.711 180.086L583.836 171.719C583.133 170.516 582.125 169.336 580.812 168.18C579.5 167.023 577.867 166.445 575.914 166.445H571.836V179.711C571.836 180.57 571.445 181 570.664 181H568.508ZM571.836 162.602H578.609C581.656 162.602 584 162.203 585.641 161.406C587.281 160.594 588.102 158.898 588.102 156.32C588.102 154.352 587.352 153.016 585.852 152.312C584.352 151.594 582.312 151.234 579.734 151.234H571.836V162.602ZM614.141 151.422C613.281 151.422 612.852 151.07 612.852 150.367V148.445C612.852 147.742 613.281 147.391 614.141 147.391H638.938C639.797 147.391 640.227 147.742 640.227 148.445V150.367C640.227 151.07 639.797 151.422 638.938 151.422H628.789V179.711C628.789 180.57 628.398 181 627.617 181H625.461C624.68 181 624.289 180.57 624.289 179.711V151.422H614.141ZM646.227 181C645.445 181 645.055 180.57 645.055 179.711V148.68C645.055 147.82 645.445 147.391 646.227 147.391H657.547C662.062 147.391 665.328 148.234 667.344 149.922C669.375 151.609 670.391 153.836 670.391 156.602C670.391 159.039 669.57 161.086 667.93 162.742C666.305 164.398 663.984 165.352 660.969 165.602V165.648C662.562 166.836 663.617 167.742 664.133 168.367C664.648 168.977 665.227 169.805 665.867 170.852L671.164 179.453C671.805 180.484 671.664 181 670.742 181H668.07C667.336 181 666.789 180.695 666.43 180.086L661.555 171.719C660.852 170.516 659.844 169.336 658.531 168.18C657.219 167.023 655.586 166.445 653.633 166.445H649.555V179.711C649.555 180.57 649.164 181 648.383 181H646.227ZM649.555 162.602H656.328C659.375 162.602 661.719 162.203 663.359 161.406C665 160.594 665.82 158.898 665.82 156.32C665.82 154.352 665.07 153.016 663.57 152.312C662.07 151.594 660.031 151.234 657.453 151.234H649.555V162.602ZM676.039 181C675.227 181 675.016 180.484 675.406 179.453L687.078 148.82C687.438 147.867 687.953 147.391 688.625 147.391H691.906C692.578 147.391 693.094 147.867 693.453 148.82L705.125 179.453C705.516 180.484 705.305 181 704.492 181H702.102C701.273 181 700.711 180.617 700.414 179.852L697.484 172.094H683.047L680.117 179.852C679.82 180.617 679.258 181 678.43 181H676.039ZM684.523 168.25H696.008L692.422 158.875C692.094 158 691.766 157.031 691.438 155.969C691.125 154.906 690.75 153.398 690.312 151.445H690.219C689.781 153.398 689.398 154.906 689.07 155.969C688.758 157.031 688.438 158 688.109 158.875L684.523 168.25ZM710.773 181C709.992 181 709.602 180.57 709.602 179.711V148.68C709.602 147.82 709.992 147.391 710.773 147.391H712.93C713.711 147.391 714.102 147.82 714.102 148.68V179.711C714.102 180.57 713.711 181 712.93 181H710.773ZM723.242 181C722.461 181 722.07 180.57 722.07 179.711V148.68C722.07 147.82 722.461 147.391 723.242 147.391H726.242C727.336 147.391 728.117 147.781 728.586 148.562L743.258 173.148H743.352C743.32 172.523 743.305 171.898 743.305 171.273V148.68C743.305 147.82 743.695 147.391 744.477 147.391H746.633C747.414 147.391 747.805 147.82 747.805 148.68V179.711C747.805 180.57 747.414 181 746.633 181H744.57C743.477 181 742.695 180.609 742.227 179.828L726.617 153.742H726.523C726.555 154.367 726.57 154.992 726.57 155.617V179.711C726.57 180.57 726.18 181 725.398 181H723.242ZM772.93 181C772.148 181 771.758 180.57 771.758 179.711V148.68C771.758 147.82 772.148 147.391 772.93 147.391H775.086C775.867 147.391 776.258 147.82 776.258 148.68V177.156H791.797C792.656 177.156 793.086 177.508 793.086 178.211V179.945C793.086 180.648 792.656 181 791.797 181H772.93ZM796.695 181C795.883 181 795.672 180.484 796.062 179.453L807.734 148.82C808.094 147.867 808.609 147.391 809.281 147.391H812.562C813.234 147.391 813.75 147.867 814.109 148.82L825.781 179.453C826.172 180.484 825.961 181 825.148 181H822.758C821.93 181 821.367 180.617 821.07 179.852L818.141 172.094H803.703L800.773 179.852C800.477 180.617 799.914 181 799.086 181H796.695ZM805.18 168.25H816.664L813.078 158.875C812.75 158 812.422 157.031 812.094 155.969C811.781 154.906 811.406 153.398 810.969 151.445H810.875C810.438 153.398 810.055 154.906 809.727 155.969C809.414 157.031 809.094 158 808.766 158.875L805.18 168.25ZM831.43 181C830.648 181 830.258 180.57 830.258 179.711V148.68C830.258 147.82 830.648 147.391 831.43 147.391H840.57C845.883 147.391 849.461 148.25 851.305 149.969C853.148 151.688 854.07 153.758 854.07 156.18C854.07 158.102 853.305 159.734 851.773 161.078C850.242 162.406 848.758 163.188 847.32 163.422V163.492C848.898 163.633 850.656 164.422 852.594 165.859C854.547 167.281 855.523 169.219 855.523 171.672C855.523 174.328 854.539 176.547 852.57 178.328C850.617 180.109 847.008 181 841.742 181H831.43ZM834.758 177.156H840.992C844.352 177.156 846.812 176.742 848.375 175.914C849.938 175.086 850.719 173.625 850.719 171.531C850.719 169.594 849.922 168.094 848.328 167.031C846.75 165.969 844.305 165.438 840.992 165.438H834.758V177.156ZM834.758 162.062H840.641C843.25 162.062 845.375 161.508 847.016 160.398C848.672 159.273 849.5 157.867 849.5 156.18C849.5 154.57 848.883 153.344 847.648 152.5C846.414 151.656 844.078 151.234 840.641 151.234H834.758V162.062ZM277.843 220C277.404 220 277.184 219.758 277.184 219.275V201.82C277.184 201.336 277.404 201.095 277.843 201.095H279.056C279.496 201.095 279.715 201.336 279.715 201.82V219.275C279.715 219.758 279.496 220 279.056 220H277.843ZM284.857 220C284.417 220 284.198 219.758 284.198 219.275V201.82C284.198 201.336 284.417 201.095 284.857 201.095H286.544C287.16 201.095 287.599 201.314 287.863 201.754L296.116 215.583H296.168C296.151 215.232 296.142 214.88 296.142 214.529V201.82C296.142 201.336 296.362 201.095 296.801 201.095H298.014C298.454 201.095 298.673 201.336 298.673 201.82V219.275C298.673 219.758 298.454 220 298.014 220H296.854C296.239 220 295.799 219.78 295.536 219.341L286.755 204.667H286.703C286.72 205.019 286.729 205.371 286.729 205.722V219.275C286.729 219.758 286.509 220 286.07 220H284.857ZM303.815 220C303.375 220 303.156 219.758 303.156 219.275V201.82C303.156 201.336 303.375 201.095 303.815 201.095H308.68C312.406 201.095 314.995 201.921 316.445 203.573C317.904 205.217 318.633 207.533 318.633 210.521C318.633 213.509 317.904 215.838 316.445 217.508C314.995 219.169 312.406 220 308.68 220H303.815ZM305.687 217.838H308.561C311.461 217.838 313.413 217.223 314.415 215.992C315.425 214.762 315.931 212.938 315.931 210.521C315.931 208.104 315.425 206.285 314.415 205.063C313.413 203.841 311.461 203.23 308.561 203.23H305.687V217.838ZM322.747 220C322.307 220 322.087 219.758 322.087 219.275V201.82C322.087 201.336 322.307 201.095 322.747 201.095H323.959C324.399 201.095 324.619 201.336 324.619 201.82V219.275C324.619 219.758 324.399 220 323.959 220H322.747ZM328.152 220C327.695 220 327.576 219.71 327.796 219.13L334.361 201.899C334.563 201.363 334.854 201.095 335.231 201.095H337.077C337.455 201.095 337.745 201.363 337.947 201.899L344.513 219.13C344.732 219.71 344.614 220 344.157 220H342.812C342.346 220 342.03 219.785 341.863 219.354L340.215 214.99H332.094L330.446 219.354C330.279 219.785 329.962 220 329.497 220H328.152ZM332.924 212.828H339.384L337.367 207.555C337.183 207.062 336.998 206.518 336.813 205.92C336.638 205.322 336.427 204.474 336.181 203.375H336.128C335.882 204.474 335.667 205.322 335.482 205.92C335.306 206.518 335.126 207.062 334.941 207.555L332.924 212.828ZM347.69 220C347.25 220 347.031 219.758 347.031 219.275V201.82C347.031 201.336 347.25 201.095 347.69 201.095H349.377C349.993 201.095 350.432 201.314 350.696 201.754L358.949 215.583H359.001C358.984 215.232 358.975 214.88 358.975 214.529V201.82C358.975 201.336 359.195 201.095 359.634 201.095H360.847C361.287 201.095 361.506 201.336 361.506 201.82V219.275C361.506 219.758 361.287 220 360.847 220H359.687C359.072 220 358.632 219.78 358.369 219.341L349.588 204.667H349.536C349.553 205.019 349.562 205.371 349.562 205.722V219.275C349.562 219.758 349.342 220 348.903 220H347.69ZM375.639 220C375.2 220 374.98 219.758 374.98 219.275V201.82C374.98 201.336 375.2 201.095 375.639 201.095H376.852C377.292 201.095 377.511 201.336 377.511 201.82V219.275C377.511 219.758 377.292 220 376.852 220H375.639ZM382.653 220C382.213 220 381.994 219.758 381.994 219.275V201.82C381.994 201.336 382.213 201.095 382.653 201.095H384.34C384.956 201.095 385.395 201.314 385.659 201.754L393.912 215.583H393.964C393.947 215.232 393.938 214.88 393.938 214.529V201.82C393.938 201.336 394.158 201.095 394.597 201.095H395.81C396.25 201.095 396.469 201.336 396.469 201.82V219.275C396.469 219.758 396.25 220 395.81 220H394.65C394.035 220 393.595 219.78 393.332 219.341L384.551 204.667H384.499C384.516 205.019 384.525 205.371 384.525 205.722V219.275C384.525 219.758 384.305 220 383.866 220H382.653ZM400.899 218.576C400.433 218.154 400.31 217.785 400.53 217.469L401.215 216.48C401.453 216.137 401.835 216.164 402.362 216.559C403.057 217.078 403.777 217.504 404.524 217.838C405.28 218.172 406.194 218.339 407.267 218.339C408.058 218.339 408.726 218.22 409.271 217.983C409.815 217.746 410.25 217.407 410.576 216.968C410.91 216.52 411.077 215.979 411.077 215.346C411.077 214.889 411.006 214.467 410.866 214.081C410.734 213.685 410.519 213.355 410.22 213.092C409.921 212.828 409.609 212.622 409.284 212.472C408.748 212.226 407.943 211.94 406.871 211.615C405.808 211.29 404.876 210.938 404.076 210.561C403.285 210.183 402.652 209.726 402.178 209.189C401.712 208.653 401.4 208.104 401.242 207.542C401.092 206.97 401.018 206.32 401.018 205.59C401.018 204.474 401.343 203.512 401.993 202.703C402.644 201.895 403.439 201.358 404.379 201.095C405.329 200.831 406.291 200.699 407.267 200.699C408.383 200.699 409.354 200.844 410.18 201.134C411.006 201.424 411.745 201.802 412.395 202.268C412.852 202.593 412.958 202.936 412.711 203.296L412.039 204.259C411.837 204.549 411.441 204.487 410.853 204.074C410.404 203.758 409.855 203.463 409.205 203.191C408.563 202.91 407.926 202.769 407.293 202.769C406.484 202.769 405.812 202.866 405.276 203.059C404.74 203.244 404.318 203.56 404.01 204.008C403.703 204.457 403.549 204.975 403.549 205.564C403.549 205.933 403.584 206.276 403.654 206.592C403.725 206.9 403.905 207.216 404.195 207.542C404.485 207.867 404.836 208.117 405.25 208.293C405.803 208.53 406.66 208.812 407.82 209.137C408.989 209.453 410.009 209.844 410.879 210.31C411.688 210.741 412.268 211.193 412.619 211.668C412.979 212.134 413.256 212.644 413.45 213.197C413.652 213.742 413.753 214.357 413.753 215.043C413.753 216.291 413.432 217.333 412.791 218.167C412.149 219.002 411.389 219.583 410.51 219.908C409.631 220.233 408.528 220.396 407.201 220.396C405.61 220.396 404.292 220.211 403.246 219.842C402.2 219.473 401.417 219.051 400.899 218.576ZM416.047 203.362C415.563 203.362 415.322 203.165 415.322 202.769V201.688C415.322 201.292 415.563 201.095 416.047 201.095H429.995C430.479 201.095 430.72 201.292 430.72 201.688V202.769C430.72 203.165 430.479 203.362 429.995 203.362H424.287V219.275C424.287 219.758 424.067 220 423.627 220H422.415C421.975 220 421.755 219.758 421.755 219.275V203.362H416.047ZM434.095 220C433.656 220 433.436 219.758 433.436 219.275V201.82C433.436 201.336 433.656 201.095 434.095 201.095H435.308C435.748 201.095 435.967 201.336 435.967 201.82V219.275C435.967 219.758 435.748 220 435.308 220H434.095ZM439.408 203.362C438.925 203.362 438.683 203.165 438.683 202.769V201.688C438.683 201.292 438.925 201.095 439.408 201.095H453.356C453.84 201.095 454.082 201.292 454.082 201.688V202.769C454.082 203.165 453.84 203.362 453.356 203.362H447.648V219.275C447.648 219.758 447.428 220 446.989 220H445.776C445.336 220 445.117 219.758 445.117 219.275V203.362H439.408ZM456.797 212.789V201.82C456.797 201.336 457.017 201.095 457.457 201.095H458.669C459.109 201.095 459.329 201.336 459.329 201.82V212.393C459.329 214.854 459.676 216.462 460.37 217.218C461.073 217.965 462.216 218.339 463.798 218.339C465.38 218.339 466.518 217.965 467.212 217.218C467.916 216.462 468.267 214.854 468.267 212.393V201.82C468.267 201.336 468.487 201.095 468.926 201.095H470.139C470.579 201.095 470.798 201.336 470.798 201.82V212.789C470.798 215.575 470.157 217.539 468.874 218.682C467.599 219.824 465.907 220.396 463.798 220.396C461.688 220.396 459.992 219.824 458.709 218.682C457.435 217.539 456.797 215.575 456.797 212.789ZM474.239 203.362C473.756 203.362 473.514 203.165 473.514 202.769V201.688C473.514 201.292 473.756 201.095 474.239 201.095H488.188C488.671 201.095 488.913 201.292 488.913 201.688V202.769C488.913 203.165 488.671 203.362 488.188 203.362H482.479V219.275C482.479 219.758 482.259 220 481.82 220H480.607C480.167 220 479.948 219.758 479.948 219.275V203.362H474.239ZM492.288 220C491.848 220 491.628 219.758 491.628 219.275V201.82C491.628 201.336 491.848 201.095 492.288 201.095H503.823C504.307 201.095 504.548 201.292 504.548 201.688V202.664C504.548 203.059 504.307 203.257 503.823 203.257H494.16V209.11H503.032C503.516 209.11 503.757 209.308 503.757 209.704V210.679C503.757 211.075 503.516 211.272 503.032 211.272H494.16V217.838H504.219C504.702 217.838 504.944 218.036 504.944 218.431V219.407C504.944 219.802 504.702 220 504.219 220H492.288ZM516.334 210.547C516.334 207.471 517.09 205.063 518.602 203.323C520.123 201.574 522.311 200.699 525.167 200.699C528.024 200.699 530.208 201.574 531.72 203.323C533.24 205.063 534 207.471 534 210.547C534 213.624 533.24 216.036 531.72 217.785C530.208 219.525 528.024 220.396 525.167 220.396C522.311 220.396 520.123 219.525 518.602 217.785C517.09 216.036 516.334 213.624 516.334 210.547ZM519.037 210.547C519.037 213.008 519.542 214.924 520.553 216.295C521.564 217.658 523.102 218.339 525.167 218.339C527.233 218.339 528.771 217.658 529.782 216.295C530.792 214.924 531.298 213.008 531.298 210.547C531.298 208.086 530.792 206.175 529.782 204.812C528.771 203.441 527.233 202.756 525.167 202.756C523.102 202.756 521.564 203.441 520.553 204.812C519.542 206.175 519.037 208.086 519.037 210.547ZM538.114 220C537.674 220 537.455 219.758 537.455 219.275V201.82C537.455 201.336 537.674 201.095 538.114 201.095H548.858C549.342 201.095 549.583 201.292 549.583 201.688V202.664C549.583 203.059 549.342 203.257 548.858 203.257H539.986V209.506H547.725C548.208 209.506 548.45 209.704 548.45 210.099V211.075C548.45 211.47 548.208 211.668 547.725 211.668H539.986V219.275C539.986 219.758 539.766 220 539.327 220H538.114ZM560.776 203.362C560.293 203.362 560.051 203.165 560.051 202.769V201.688C560.051 201.292 560.293 201.095 560.776 201.095H574.725C575.208 201.095 575.45 201.292 575.45 201.688V202.769C575.45 203.165 575.208 203.362 574.725 203.362H569.016V219.275C569.016 219.758 568.796 220 568.357 220H567.144C566.705 220 566.485 219.758 566.485 219.275V203.362H560.776ZM578.825 220C578.385 220 578.166 219.758 578.166 219.275V201.82C578.166 201.336 578.385 201.095 578.825 201.095H590.36C590.844 201.095 591.085 201.292 591.085 201.688V202.664C591.085 203.059 590.844 203.257 590.36 203.257H580.697V209.11H589.569C590.053 209.11 590.294 209.308 590.294 209.704V210.679C590.294 211.075 590.053 211.272 589.569 211.272H580.697V217.838H590.756C591.239 217.838 591.481 218.036 591.481 218.431V219.407C591.481 219.802 591.239 220 590.756 220H578.825ZM593.88 210.547C593.88 207.471 594.641 205.063 596.161 203.323C597.69 201.574 599.883 200.699 602.74 200.699C604.41 200.699 605.79 200.985 606.879 201.556C607.969 202.119 608.751 202.892 609.226 203.876C609.472 204.386 609.433 204.738 609.107 204.931L608.066 205.538C607.714 205.74 607.402 205.573 607.13 205.037C606.84 204.483 606.365 203.964 605.706 203.481C605.047 202.998 604.102 202.756 602.872 202.756C600.674 202.756 599.075 203.441 598.073 204.812C597.08 206.175 596.583 208.086 596.583 210.547C596.583 213.008 597.08 214.924 598.073 216.295C599.075 217.658 600.674 218.339 602.872 218.339C604.137 218.339 605.148 218.049 605.904 217.469C606.668 216.889 607.222 216.282 607.565 215.649C607.837 215.14 608.154 214.986 608.514 215.188L609.608 215.808C609.925 215.992 609.951 216.344 609.688 216.862C609.169 217.873 608.325 218.717 607.156 219.394C605.987 220.062 604.515 220.396 602.74 220.396C599.883 220.396 597.69 219.525 596.161 217.785C594.641 216.036 593.88 213.624 593.88 210.547ZM614.051 220C613.612 220 613.392 219.758 613.392 219.275V201.82C613.392 201.336 613.612 201.095 614.051 201.095H615.264C615.704 201.095 615.923 201.336 615.923 201.82V209.084H625.125V201.82C625.125 201.336 625.345 201.095 625.785 201.095H626.998C627.437 201.095 627.657 201.336 627.657 201.82V219.275C627.657 219.758 627.437 220 626.998 220H625.785C625.345 220 625.125 219.758 625.125 219.275V211.246H615.923V219.275C615.923 219.758 615.704 220 615.264 220H614.051ZM632.798 220C632.359 220 632.139 219.758 632.139 219.275V201.82C632.139 201.336 632.359 201.095 632.798 201.095H634.486C635.101 201.095 635.541 201.314 635.804 201.754L644.057 215.583H644.11C644.092 215.232 644.083 214.88 644.083 214.529V201.82C644.083 201.336 644.303 201.095 644.743 201.095H645.956C646.395 201.095 646.615 201.336 646.615 201.82V219.275C646.615 219.758 646.395 220 645.956 220H644.795C644.18 220 643.741 219.78 643.477 219.341L634.697 204.667H634.644C634.662 205.019 634.67 205.371 634.67 205.722V219.275C634.67 219.758 634.451 220 634.011 220H632.798ZM650.069 210.547C650.069 207.471 650.825 205.063 652.336 203.323C653.857 201.574 656.045 200.699 658.902 200.699C661.758 200.699 663.942 201.574 665.454 203.323C666.975 205.063 667.735 207.471 667.735 210.547C667.735 213.624 666.975 216.036 665.454 217.785C663.942 219.525 661.758 220.396 658.902 220.396C656.045 220.396 653.857 219.525 652.336 217.785C650.825 216.036 650.069 213.624 650.069 210.547ZM652.771 210.547C652.771 213.008 653.277 214.924 654.288 216.295C655.298 217.658 656.836 218.339 658.902 218.339C660.967 218.339 662.505 217.658 663.516 216.295C664.527 214.924 665.032 213.008 665.032 210.547C665.032 208.086 664.527 206.175 663.516 204.812C662.505 203.441 660.967 202.756 658.902 202.756C656.836 202.756 655.298 203.441 654.288 204.812C653.277 206.175 652.771 208.086 652.771 210.547ZM671.848 220C671.409 220 671.189 219.758 671.189 219.275V201.82C671.189 201.336 671.409 201.095 671.848 201.095H673.061C673.5 201.095 673.72 201.336 673.72 201.82V217.838H682.461C682.944 217.838 683.186 218.036 683.186 218.431V219.407C683.186 219.802 682.944 220 682.461 220H671.848ZM685.137 210.547C685.137 207.471 685.893 205.063 687.405 203.323C688.925 201.574 691.114 200.699 693.97 200.699C696.827 200.699 699.011 201.574 700.522 203.323C702.043 205.063 702.803 207.471 702.803 210.547C702.803 213.624 702.043 216.036 700.522 217.785C699.011 219.525 696.827 220.396 693.97 220.396C691.114 220.396 688.925 219.525 687.405 217.785C685.893 216.036 685.137 213.624 685.137 210.547ZM687.84 210.547C687.84 213.008 688.345 214.924 689.356 216.295C690.367 217.658 691.905 218.339 693.97 218.339C696.036 218.339 697.574 217.658 698.584 216.295C699.595 214.924 700.101 213.008 700.101 210.547C700.101 208.086 699.595 206.175 698.584 204.812C697.574 203.441 696.036 202.756 693.97 202.756C691.905 202.756 690.367 203.441 689.356 204.812C688.345 206.175 687.84 208.086 687.84 210.547ZM705.229 210.547C705.229 207.471 706.024 205.063 707.615 203.323C709.206 201.574 711.417 200.699 714.247 200.699C715.943 200.699 717.327 200.994 718.399 201.583C719.472 202.163 720.258 202.848 720.759 203.639C721.067 204.131 721.062 204.487 720.746 204.707L719.757 205.393C719.432 205.621 719.107 205.485 718.782 204.984C718.518 204.588 718.021 204.118 717.292 203.573C716.562 203.028 715.591 202.756 714.378 202.756C712.225 202.756 710.612 203.441 709.54 204.812C708.468 206.175 707.932 208.086 707.932 210.547C707.932 213.008 708.455 214.924 709.5 216.295C710.546 217.658 712.216 218.339 714.51 218.339C715.653 218.339 716.646 218.203 717.49 217.93C718.342 217.649 718.94 217.262 719.283 216.77V213.276H715.367C714.884 213.276 714.642 213.079 714.642 212.683V211.708C714.642 211.312 714.884 211.114 715.367 211.114H721.089C721.572 211.114 721.814 211.312 721.814 211.708V217.93C720.742 218.712 719.669 219.319 718.597 219.75C717.525 220.18 716.119 220.396 714.378 220.396C711.478 220.396 709.228 219.525 707.628 217.785C706.029 216.036 705.229 213.624 705.229 210.547ZM724.675 201.965C724.297 201.385 724.416 201.095 725.031 201.095H726.507C726.894 201.095 727.21 201.31 727.457 201.741L730.805 207.502C731.174 208.135 731.491 208.688 731.754 209.163C732.018 209.629 732.273 210.125 732.519 210.653H732.572C732.818 210.125 733.073 209.629 733.336 209.163C733.6 208.688 733.917 208.135 734.286 207.502L737.634 201.741C737.88 201.31 738.197 201.095 738.583 201.095H740.06C740.675 201.095 740.794 201.385 740.416 201.965L733.811 212.222V219.275C733.811 219.758 733.591 220 733.152 220H731.939C731.5 220 731.28 219.758 731.28 219.275V212.222L724.675 201.965ZM752.453 220C752.013 220 751.793 219.758 751.793 219.275V201.82C751.793 201.336 752.013 201.095 752.453 201.095H757.594C760.583 201.095 762.595 201.578 763.632 202.545C764.669 203.512 765.188 204.676 765.188 206.039C765.188 207.12 764.757 208.038 763.896 208.794C763.035 209.541 762.2 209.98 761.391 210.112V210.152C762.279 210.231 763.268 210.675 764.357 211.483C765.456 212.283 766.005 213.373 766.005 214.753C766.005 216.247 765.452 217.495 764.344 218.497C763.246 219.499 761.215 220 758.253 220H752.453ZM754.325 217.838H757.832C759.721 217.838 761.105 217.605 761.984 217.139C762.863 216.673 763.303 215.852 763.303 214.674C763.303 213.584 762.854 212.74 761.958 212.143C761.07 211.545 759.695 211.246 757.832 211.246H754.325V217.838ZM754.325 209.348H757.634C759.102 209.348 760.297 209.036 761.22 208.412C762.151 207.779 762.617 206.988 762.617 206.039C762.617 205.133 762.27 204.443 761.576 203.969C760.881 203.494 759.567 203.257 757.634 203.257H754.325V209.348ZM768.668 210.547C768.668 207.471 769.424 205.063 770.936 203.323C772.457 201.574 774.645 200.699 777.501 200.699C780.358 200.699 782.542 201.574 784.054 203.323C785.574 205.063 786.334 207.471 786.334 210.547C786.334 213.624 785.574 216.036 784.054 217.785C782.542 219.525 780.358 220.396 777.501 220.396C774.645 220.396 772.457 219.525 770.936 217.785C769.424 216.036 768.668 213.624 768.668 210.547ZM771.371 210.547C771.371 213.008 771.876 214.924 772.887 216.295C773.898 217.658 775.436 218.339 777.501 218.339C779.567 218.339 781.105 217.658 782.116 216.295C783.126 214.924 783.632 213.008 783.632 210.547C783.632 208.086 783.126 206.175 782.116 204.812C781.105 203.441 779.567 202.756 777.501 202.756C775.436 202.756 773.898 203.441 772.887 204.812C771.876 206.175 771.371 208.086 771.371 210.547ZM790.448 220C790.008 220 789.789 219.758 789.789 219.275V201.82C789.789 201.336 790.008 201.095 790.448 201.095H793.256C793.59 201.095 793.84 201.358 794.007 201.886L797.778 213.711C798.165 214.924 798.393 215.658 798.463 215.913C798.534 216.159 798.635 216.616 798.767 217.284H798.846C798.978 216.616 799.079 216.159 799.149 215.913C799.219 215.658 799.448 214.924 799.834 213.711L803.605 201.886C803.772 201.358 804.022 201.095 804.356 201.095H807.165C807.604 201.095 807.824 201.336 807.824 201.82V219.275C807.824 219.758 807.604 220 807.165 220H805.952C805.512 220 805.292 219.758 805.292 219.275V205.445C805.292 205.094 805.301 204.742 805.319 204.391H805.266L800.401 219.196C800.226 219.732 799.936 220 799.531 220H798.081C797.677 220 797.387 219.732 797.211 219.196L792.346 204.391H792.293C792.311 204.742 792.32 205.094 792.32 205.445V219.275C792.32 219.758 792.1 220 791.661 220H790.448ZM812.965 220C812.526 220 812.306 219.758 812.306 219.275V201.82C812.306 201.336 812.526 201.095 812.965 201.095H818.107C821.095 201.095 823.108 201.578 824.145 202.545C825.182 203.512 825.701 204.676 825.701 206.039C825.701 207.12 825.27 208.038 824.409 208.794C823.547 209.541 822.712 209.98 821.904 210.112V210.152C822.792 210.231 823.78 210.675 824.87 211.483C825.969 212.283 826.518 213.373 826.518 214.753C826.518 216.247 825.964 217.495 824.857 218.497C823.758 219.499 821.728 220 818.766 220H812.965ZM814.837 217.838H818.344C820.234 217.838 821.618 217.605 822.497 217.139C823.376 216.673 823.815 215.852 823.815 214.674C823.815 213.584 823.367 212.74 822.471 212.143C821.583 211.545 820.208 211.246 818.344 211.246H814.837V217.838ZM814.837 209.348H818.146C819.614 209.348 820.81 209.036 821.732 208.412C822.664 207.779 823.13 206.988 823.13 206.039C823.13 205.133 822.783 204.443 822.088 203.969C821.394 203.494 820.08 203.257 818.146 203.257H814.837V209.348ZM829.26 220C828.803 220 828.685 219.71 828.904 219.13L835.47 201.899C835.672 201.363 835.962 201.095 836.34 201.095H838.186C838.563 201.095 838.854 201.363 839.056 201.899L845.621 219.13C845.841 219.71 845.722 220 845.265 220H843.92C843.455 220 843.138 219.785 842.971 219.354L841.323 214.99H833.202L831.554 219.354C831.387 219.785 831.071 220 830.605 220H829.26ZM834.033 212.828H840.493L838.476 207.555C838.291 207.062 838.106 206.518 837.922 205.92C837.746 205.322 837.535 204.474 837.289 203.375H837.236C836.99 204.474 836.775 205.322 836.59 205.92C836.415 206.518 836.234 207.062 836.05 207.555L834.033 212.828ZM844.171 201.965C843.793 201.385 843.912 201.095 844.527 201.095H846.003C846.39 201.095 846.707 201.31 846.953 201.741L850.301 207.502C850.67 208.135 850.987 208.688 851.25 209.163C851.514 209.629 851.769 210.125 852.015 210.653H852.068C852.314 210.125 852.569 209.629 852.833 209.163C853.096 208.688 853.413 208.135 853.782 207.502L857.13 201.741C857.376 201.31 857.693 201.095 858.08 201.095H859.556C860.171 201.095 860.29 201.385 859.912 201.965L853.307 212.222V219.275C853.307 219.758 853.087 220 852.648 220H851.435C850.996 220 850.776 219.758 850.776 219.275V212.222L844.171 201.965Z" fill="white"/>
</g>
<defs>
<filter id="filter0_d_2_9" x="99.4999" y="0.499908" width="936" height="264" filterUnits="userSpaceOnUse" color-interpolation-filters="sRGB">
<feFlood flood-opacity="0" result="BackgroundImageFix"/>
<feColorMatrix in="SourceAlpha" type="matrix" values="0 0 0 0 0 0 0 0 0 0 0 0 0 0 0 0 0 0 127 0" result="hardAlpha"/>
<feOffset dy="4"/>
<feGaussianBlur stdDeviation="2"/>
<feComposite in2="hardAlpha" operator="out"/>
<feColorMatrix type="matrix" values="0 0 0 0 0 0 0 0 0 0 0 0 0 0 0 0 0 0 0.25 0"/>
<feBlend mode="normal" in2="BackgroundImageFix" result="effect1_dropShadow_2_9"/>
<feBlend mode="normal" in="SourceGraphic" in2="effect1_dropShadow_2_9" result="shape"/>
</filter>
<filter id="filter1_d_2_9" x="273.184" y="146.688" width="591.295" height="81.708" filterUnits="userSpaceOnUse" color-interpolation-filters="sRGB">
<feFlood flood-opacity="0" result="BackgroundImageFix"/>
<feColorMatrix in="SourceAlpha" type="matrix" values="0 0 0 0 0 0 0 0 0 0 0 0 0 0 0 0 0 0 127 0" result="hardAlpha"/>
<feOffset dy="4"/>
<feGaussianBlur stdDeviation="2"/>
<feComposite in2="hardAlpha" operator="out"/>
<feColorMatrix type="matrix" values="0 0 0 0 0 0 0 0 0 0 0 0 0 0 0 0 0 0 0.25 0"/>
<feBlend mode="normal" in2="BackgroundImageFix" result="effect1_dropShadow_2_9"/>
<feBlend mode="normal" in="SourceGraphic" in2="effect1_dropShadow_2_9" result="shape"/>
</filter>
</defs>
</svg>
